PathFileType	4	(X/Y/Z)	Patient4_TMGait_0pt5_02_right_44.trc.trc
DataRate	CameraRate	NumFrames	NumMarkers	Units	OrigDataRate	OrigDataStartFrame	OrigNumFrames
75.268817204301	75.268817204301	7	33	mm	75.268817204301	1	       141
Frame#	Time	Sacral			L.Shoulder			Chest			R.Shoulder			Neck			R.ASIS			L.ASIS			R.Thigh.Superior			R.Thigh.Lateral			R.Thigh.Inferior			R.Patella			L.Thigh.Superior			L.Thigh.Lateral			L.Thigh.Inferior			L.Patella			L.Shank.Superior			L.Shank.Lateral			L.Shank.Inferior			R.Shank.Superior			R.Shank.Lateral			R.Shank.Inferior			R.Heel			R.Midfoot.Superior			R.Midfoot.Lateral			R.Toe			L.Heel			L.Midfoot.Lateral			L.Midfoot.Superior			L.Toe			L.Elbow			L.Wrist			R.Elbow			R.Wrist			
		X1	Y1	Z1	X2	Y2	Z2	X3	Y3	Z3	X4	Y4	Z4	X5	Y5	Z5	X6	Y6	Z6	X7	Y7	Z7	X8	Y8	Z8	X9	Y9	Z9	X10	Y10	Z10	X11	Y11	Z11	X12	Y12	Z12	X13	Y13	Z13	X14	Y14	Z14	X15	Y15	Z15	X16	Y16	Z16	X17	Y17	Z17	X18	Y18	Z18	X19	Y19	Z19	X20	Y20	Z20	X21	Y21	Z21	X22	Y22	Z22	X23	Y23	Z23	X24	Y24	Z24	X25	Y25	Z25	X26	Y26	Z26	X27	Y27	Z27	X28	Y28	Z28	X29	Y29	Z29	X30	Y30	Z30	X31	Y31	Z31	X32	Y32	Z32	X33	Y33	Z33	

1	57.370000000000	679.932894730304	1019.996046303771	454.152744504286	880.926884175128	1430.584434198719	255.065461815860	982.369467230147	1354.169358266036	414.217127430611	911.670830716322	1438.216533288786	589.811929491086	893.908246294140	1494.828146052289	403.620729926443	905.025076075640	943.782182944095	561.602487415331	884.559501776566	957.859090781500	288.519910318841	976.216194117804	764.950584478937	527.348408395144	930.211718009675	647.513136038897	599.992563084938	1014.039561108345	603.451708023342	516.400852540841	1025.403174138437	488.420386782890	535.750671123175	931.189395404049	748.969109264237	319.026206331008	838.712627177241	636.608806417898	267.231607917887	921.531764802398	557.362700660281	331.572116880771	920.082540697231	486.628682559616	343.504535556920	890.889332100774	416.325388205586	336.135103348041	798.586441334047	305.021209235229	284.323812760589	843.140989994278	193.219359757621	358.906174790377	944.132836859821	419.732408334818	546.744267655534	821.690040400309	388.943396289093	609.303542118830	798.384291796686	281.685489651047	563.484000477370	593.285699314336	236.188607166640	538.062985615833	756.691740947313	166.460029682746	585.421227307665	648.379126370404	180.954343800897	617.966595581702	809.361252515199	50.973393882460	624.240787753153	707.103617771597	39.110609908240	397.150922024217	784.247684715536	35.946194700431	319.376481740115	866.873552307091	96.006437618925	348.837663629998	996.180272131023	41.116376869291	325.780301048090	815.014070678831	1084.335630051748	129.569618803438	961.132450051989	867.362662053905	137.746310041552	844.528319035344	1102.129420200716	721.640777626422	880.265986416265	842.950046938317	729.538519788925	
2	57.383285714286	677.836829562026	1019.953606475944	452.156693015852	881.228563842597	1430.646409382274	254.633688557997	980.977916891529	1354.276686102351	414.831657898738	908.544813929523	1438.311249363189	589.648376020040	892.726409750969	1494.871221749607	403.337832728021	903.039746998153	944.666526965230	561.516293427504	884.100922122201	957.701772671536	288.293516003830	977.568300901579	769.215811084800	526.300830933853	935.093163342224	651.150834752600	599.239882339305	1019.315066846540	608.979724043440	515.083105073621	1033.863323337008	494.360652057478	534.456050387788	929.427715727612	747.919893281805	319.434222978569	836.615160050620	636.072543552246	267.249025233517	918.491746935499	556.394194012703	332.169762427773	916.355000915943	485.583160593903	344.275230162188	886.691514038435	415.489267076351	336.701510417970	793.801244313604	304.797441674117	284.551726023900	836.859320974171	192.695238038798	359.321164551076	954.411170743122	423.691746486948	545.872038644850	833.284991332161	389.732614664123	609.142885407825	812.380882792242	281.871287054603	563.218405929318	608.439204821658	231.066163307014	539.087727395873	773.870277510469	165.584606692031	585.239667776067	665.442170701580	177.289592972355	618.626449433290	829.697068953056	51.420749012650	623.627269849648	699.987607350085	39.090496868464	397.163141836456	777.191311593174	35.941180978366	319.386559468931	859.835083773692	95.968575095121	348.931387163611	989.127609755427	41.042284458780	325.783508673640	817.211094130338	1084.267788476441	128.500171667994	965.676994913713	869.413992378504	141.039741467641	833.980274743881	1105.315717726837	723.158859721610	862.484443310082	846.159310058945	736.223297732685	
3	57.396571428571	675.788643340956	1019.902205318507	450.176686589945	881.558064047813	1430.698536929568	254.224775069543	979.595815391722	1354.388935391229	415.480361863749	905.403585181746	1438.414425502818	589.506130291160	891.543314788869	1494.915395995776	403.072670360081	901.044658306365	945.546956213576	561.472225231468	883.680193803815	957.541992738152	288.117304488633	978.845374432197	773.437303580749	525.329990144755	939.840606222088	654.767021192671	598.590802578858	1024.421475359907	614.420548156811	513.877049193571	1042.093604428206	500.263693234226	533.311449893544	927.695562661795	746.872784317225	319.900161959625	834.537470804194	635.535894246226	267.295046814912	915.452495870617	555.422581919194	332.807993360594	912.635885143761	484.543071689335	345.073721272675	882.503698005627	414.652272176713	337.289849719707	789.041953954326	304.572483163151	284.790942344396	830.619852842209	192.175241979407	359.739483083444	964.550689202225	427.576869188901	545.121956784037	844.804694582146	390.265979057142	609.072768428852	826.485537001488	281.799186535036	563.033525085695	623.814590823821	225.394394556073	540.136780810855	791.327987446931	164.419035260090	585.124335337242	682.775445985620	173.169135448384	619.325889308029	850.469297241576	51.692205699725	623.097407196160	692.921478637087	39.071015918415	397.171494646835	770.178752916262	35.936627285108	319.398371182835	852.839790662940	95.931161525243	349.029616669650	982.120223823053	40.967931148177	325.789983825743	819.459837014591	1084.180710699704	127.480788777875	970.247759232834	871.452106000258	144.403291727069	823.561884521412	1108.472184684085	724.612403720925	845.047497558909	849.375961303874	742.716858485274	
4	57.409857142857	673.843490848586	1019.833603378244	448.243104622953	881.934955771163	1430.732217420168	253.871042377211	978.237576854714	1354.509019157353	416.197448695252	902.251570428137	1438.531480793331	589.409376372129	890.363550122739	1494.960384571108	402.851447773782	899.045730911223	946.408163970199	561.515921577101	883.347078732604	957.383186796412	288.035126018217	979.951501883429	777.505912672934	524.533983768256	944.236860480100	658.273779756940	598.153207030360	1029.119108184574	619.611219444782	512.915008672045	1049.783565230842	506.033862220562	532.465758611462	926.013627702557	745.832615173347	320.477324850936	832.490111811041	635.004336635794	267.389833360270	912.404546883967	554.449061980945	333.513543781818	908.916917187243	483.518208115539	345.914964013637	878.325750684338	413.818939357497	337.910706140724	784.324023490224	304.347494885848	285.046680120987	824.458941701234	191.666997249704	360.160220033204	974.342767024544	431.293938555529	544.612804758933	856.156494997655	390.305702357508	609.186899189132	840.781646446385	281.274449930709	563.007037360337	639.703534986799	218.728243984729	541.228456688136	809.331404470193	162.788341303699	585.133304422313	700.694430400615	168.252403554932	620.089545645850	872.062994608055	51.770337114083	622.706916852481	685.951903359558	39.054363299515	397.173590072879	763.253364590040	35.933759850411	319.412957218001	845.930625358281	95.893689720990	349.135136718730	975.202207535630	40.893639779369	325.802604024981	821.812459317080	1084.055552399702	126.574901070420	974.895480650660	873.492279366592	147.901918761126	813.432461279423	1111.548049252544	725.927943035192	828.343387065880	852.572233166560	748.801475960416	
5	57.423142857143	672.048330607976	1019.738913883931	446.383885832710	882.373014197426	1430.740800726516	253.603359500524	976.913058926430	1354.639128561170	417.014010311975	899.090722175471	1438.665782081877	589.380852476913	889.189806627442	1495.005924076957	402.699180068659	897.048935992860	947.234400639127	561.686416541408	883.147833794715	957.232735941098	288.079655777568	980.803256146956	781.312895610501	524.005320629728	948.070458756632	661.573415527622	598.014618389396	1033.192362788452	624.395322159016	512.319680282639	1056.658611854340	511.580797342365	532.048250019545	924.385342625737	744.800175662906	321.211063284321	830.469770658293	634.485225163421	267.546644787550	909.320147360780	553.473345315502	334.305987635910	905.168720827093	482.516897801495	346.806373144413	874.135819602190	412.994628056840	338.568344247331	779.637852574726	304.124120555464	285.319683755865	818.383939484803	191.177773047293	360.580984226929	983.611501515244	434.764258247744	544.445904102144	867.291198713595	389.652155709270	609.565833118127	855.380732143578	280.153238109627	563.204507141239	656.445521625418	210.705855564546	542.373848272563	828.168523652408	160.584067923541	585.312354307507	719.552053959991	162.277786411174	620.931187598151	894.861579831852	51.706868937848	622.491048539133	679.094252907437	39.042860057490	397.166972416199	756.428024941214	35.933204253856	319.431066646313	839.120642654682	95.856139081490	349.249314487612	968.386594054950	40.819268833636	325.823700292536	824.321797643723	1083.875368678946	125.839641373305	979.691123923798	875.566685128268	151.599195592451	803.709542714283	1114.498298232148	727.044588437782	812.660072354596	855.716110687218	754.303148587910	
6	57.436428571429	670.438512926852	1019.610411168645	444.624948199153	882.877087067059	1430.720239537458	253.449166716689	975.628970047944	1354.779930283495	417.953540600050	895.927058629787	1438.817618371747	589.439992075890	888.024733524912	1495.051263196669	402.638323212739	895.064788190937	948.008724762830	562.012376573677	883.121233030190	957.101123963245	288.268916682143	981.335288543377	784.750040951481	523.823100888575	951.145987019047	664.558265125490	598.232367335664	1036.460652456048	628.626105987002	512.192051598708	1062.492148281753	516.815206082663	532.153458146558	922.800627204272	743.774901298515	322.132883920963	828.462509319847	633.987870176997	267.769970357045	906.161057483733	552.495487123174	335.193206038278	901.348937200102	481.546460279327	347.745134460327	869.899281750025	412.186566215250	339.258532742354	774.956722974675	303.904724719257	285.605687214093	812.381379573559	190.714370447742	360.997427413862	992.211377955903	437.925325551960	544.693078413159	878.187225054330	388.168864191592	610.267565795257	870.381130121301	278.366045199798	563.671096851371	674.363702562028	201.112586066566	543.573790753850	848.080409637024	157.789441780367	585.688739847443	739.667820611763	155.111908697864	621.850087927363	919.157575735444	51.628775035057	622.458216270199	672.341748005649	39.038872299293	397.149603202791	749.694649252807	35.935023782755	319.453017408634	832.402362474030	95.818862578626	349.371686771250	961.664738112018	40.744363918163	325.854688649210	827.031508030842	1083.627307657038	125.322283949249	984.712463485492	877.720700992356	155.544228581767	794.474165231263	1117.282146742846	727.918043842771	798.185593147578	858.766883027981	759.098415545127	
7	57.449714285714	669.035923077645	1019.442808988976	442.990016629209	883.441812107708	1430.668986526991	253.431354652890	974.389956167634	1354.929926562499	419.029855832899	892.774252130626	1438.983670032159	589.601916195610	886.871721500667	1495.094439217028	402.688238317288	893.110699408474	948.712560182906	562.510733926289	883.295819499318	956.999387001095	288.606622149898	981.501956536150	787.711365384622	524.047359619848	953.294508971862	667.115043753623	598.830803738769	1038.783946916178	632.170480436527	512.602308312615	1067.111941703551	521.647749746618	532.831373477966	921.241572338471	742.756574524582	323.257544105383	826.447914635048	633.522466774605	268.055742901043	902.887025353495	551.516869201354	336.169613085321	897.410706708986	480.612914563456	348.718536278130	865.577751892122	411.403630943045	339.968869168066	770.245075764353	303.692306407699	285.896404198526	806.424972545257	190.282505848852	361.403637306455	1000.024062177553	440.730627054857	545.389815922533	888.835252054894	385.795089592369	611.322834816268	885.836355417207	275.926149087419	564.427111753119	693.711055980057	189.912305734098	544.819455847854	869.210852590451	154.485369663017	586.268651777014	761.272617289703	146.770802771069	622.831173086334	945.092396278404	51.729218156737	622.588547378993	665.673947693301	39.044859553803	397.120427010218	743.032997932896	35.938949320241	319.478680357484	825.756338698806	95.782282657832	349.500096648345	955.015151282320	40.668385295741	325.895916612969	829.970011230031	1083.303829369878	125.058571273201	990.033073255975	880.008986901491	159.764510651508	785.777248329314	1119.862448106412	728.521882445620	785.020661560781	861.674485609823	763.113498184326	
